<?xml version="1.0" encoding="UTF-8" ?>
<!DOCTYPE svg PUBLIC "-//W3C//DTD SVG 1.1//EN" "http://www.w3.org/Graphics/SVG/1.1/DTD/svg11.dtd">
<svg width="920pt" height="920pt" viewBox="0 0 920 920" version="1.1" xmlns="http://www.w3.org/2000/svg">
<path fill="#f7f8f9" d=" M 0.00 0.00 L 448.82 0.00 C 440.93 1.78 432.80 0.45 424.84 1.65 C 328.23 8.86 234.23 47.57 160.75 110.75 C 125.68 140.55 95.38 175.91 70.80 214.80 C 62.71 227.05 55.99 240.11 48.99 252.99 C 47.61 255.69 46.43 258.48 45.20 261.25 C 21.28 310.59 6.78 364.36 1.74 418.92 C 1.15 424.89 1.13 430.93 0.00 436.84 L 0.00 0.00 Z" />
<path fill="#7915f0" d=" M 448.82 0.00 L 471.17 0.00 C 477.88 1.57 484.79 0.65 491.58 1.41 C 539.75 4.73 587.40 15.70 632.15 33.83 C 647.44 40.12 662.66 46.72 677.03 54.93 C 708.17 71.54 737.38 91.78 763.85 115.13 C 769.63 119.65 774.42 125.23 779.86 130.13 C 786.61 135.71 791.80 142.85 798.26 148.74 C 821.64 174.33 842.36 202.43 859.39 232.64 C 864.82 242.61 870.70 252.38 875.17 262.85 C 899.65 314.13 914.26 370.06 918.43 426.72 C 919.60 434.72 918.17 442.89 920.00 450.82 L 920.00 469.18 C 918.17 477.10 919.60 485.28 918.43 493.28 C 914.64 545.96 901.64 597.97 880.23 646.26 C 860.94 690.15 834.37 730.74 802.56 766.57 C 798.44 771.43 793.53 775.56 789.55 780.56 C 786.16 784.82 782.01 788.37 777.85 791.86 C 760.26 809.15 740.88 824.59 720.61 838.62 C 654.84 884.24 576.81 911.73 497.08 918.26 C 489.47 919.41 481.71 918.35 474.17 920.00 L 444.84 920.00 C 440.60 919.13 436.27 918.91 431.96 918.91 C 363.03 914.91 295.19 894.79 234.97 861.07 C 201.36 842.30 170.20 819.21 142.23 792.78 C 136.93 787.40 131.57 782.10 126.23 776.77 C 98.69 747.15 74.30 714.44 55.28 678.69 C 46.41 663.25 39.51 646.80 32.57 630.43 C 25.27 611.67 19.05 592.48 13.97 573.00 C 7.45 546.09 2.66 518.68 1.00 491.01 C 0.83 488.37 0.41 485.76 0.00 483.16 L 0.00 436.84 C 1.13 430.93 1.15 424.89 1.74 418.92 C 6.78 364.36 21.28 310.59 45.20 261.25 C 46.43 258.48 47.61 255.69 48.99 252.99 C 55.99 240.11 62.71 227.05 70.80 214.80 C 95.38 175.91 125.68 140.55 160.75 110.75 C 234.23 47.57 328.23 8.86 424.84 1.65 C 432.80 0.45 440.93 1.78 448.82 0.00 Z" />
<path fill="#f7f8f9" d=" M 471.17 0.00 L 920.00 0.00 L 920.00 450.82 C 918.17 442.89 919.60 434.72 918.43 426.72 C 914.26 370.06 899.65 314.13 875.17 262.85 C 870.70 252.38 864.82 242.61 859.39 232.64 C 842.36 202.43 821.64 174.33 798.26 148.74 C 791.80 142.85 786.61 135.71 779.86 130.13 C 774.42 125.23 769.63 119.65 763.85 115.13 C 737.38 91.78 708.17 71.54 677.03 54.93 C 662.66 46.72 647.44 40.12 632.15 33.83 C 587.40 15.70 539.75 4.73 491.58 1.41 C 484.79 0.65 477.88 1.57 471.17 0.00 Z" />
<path fill="#f7f8f9" d=" M 426.93 11.72 C 435.00 10.47 443.22 11.71 451.28 10.38 C 440.34 43.35 429.59 76.40 418.55 109.34 C 413.59 123.91 409.09 138.62 404.28 153.24 C 386.59 155.43 369.45 160.77 352.71 166.70 C 286.95 190.26 230.03 237.06 193.56 296.55 C 166.85 340.00 151.09 390.07 147.95 440.96 C 147.88 453.31 147.94 465.67 147.93 478.02 C 152.20 554.43 185.59 629.06 240.57 682.43 C 252.65 694.82 266.31 705.54 280.23 715.77 C 329.52 750.19 388.87 770.21 449.00 772.10 C 460.68 771.87 472.40 772.64 484.04 771.30 C 502.07 770.11 519.95 767.04 537.40 762.40 C 558.06 757.15 578.34 750.07 597.30 740.27 C 625.47 726.75 651.62 708.85 674.05 687.07 C 677.63 684.00 681.27 680.94 684.28 677.28 C 688.75 671.77 694.11 667.07 698.50 661.49 C 742.17 610.09 768.15 544.06 771.68 476.74 C 775.73 405.16 754.02 332.35 711.22 274.79 C 703.09 263.74 694.38 253.05 684.43 243.57 C 676.30 235.70 668.79 227.15 659.85 220.16 C 633.22 197.77 602.61 180.24 570.11 167.89 C 549.37 160.59 528.13 153.96 506.18 151.65 C 491.08 104.35 474.92 57.41 459.79 10.12 C 467.23 9.67 474.56 11.53 482.00 11.07 C 545.56 14.12 608.38 31.03 665.02 60.00 C 696.91 76.86 727.28 96.80 754.45 120.60 C 765.23 129.40 774.78 139.56 784.57 149.43 C 793.34 157.72 800.78 167.25 808.59 176.41 C 821.38 192.23 833.08 208.91 843.76 226.22 C 849.76 236.05 855.13 246.24 860.72 256.30 C 876.51 287.96 889.08 321.31 897.18 355.79 C 902.78 379.78 906.65 404.20 908.36 428.78 C 909.50 436.35 908.37 444.03 909.42 451.60 C 910.13 456.90 910.20 462.29 909.51 467.60 C 908.32 475.72 909.53 483.96 908.28 492.07 C 906.25 521.84 900.97 551.35 893.10 580.12 C 885.82 607.11 875.41 633.15 863.43 658.38 C 852.22 680.78 839.16 702.23 824.65 722.65 C 811.99 739.78 798.74 756.56 783.66 771.63 C 780.17 776.14 776.14 780.17 771.63 783.66 C 756.39 798.91 739.41 812.29 722.08 825.08 C 699.38 841.10 675.52 855.59 650.29 867.28 C 624.34 879.06 597.54 889.14 569.80 895.82 C 542.74 902.92 514.92 906.74 487.06 908.87 C 477.67 908.55 468.39 910.41 459.00 909.97 C 450.95 910.41 443.01 908.73 434.98 908.91 C 371.95 905.44 309.64 888.57 253.62 859.42 C 220.26 842.26 189.13 820.80 160.99 796.01 C 142.84 780.18 126.26 762.59 111.20 743.81 C 93.06 721.61 77.00 697.71 63.55 672.39 C 59.49 665.27 55.65 658.03 52.50 650.46 C 27.81 598.15 13.86 540.93 10.65 483.22 C 9.41 471.19 10.39 459.07 10.03 447.01 C 12.00 402.53 19.33 358.05 33.92 315.90 C 38.40 301.94 44.11 288.41 49.96 274.98 C 53.96 267.51 56.67 259.41 61.14 252.18 C 75.43 224.55 92.90 198.62 112.53 174.51 C 119.41 165.79 127.23 157.88 134.45 149.45 C 171.80 110.83 215.89 78.64 264.29 55.24 C 315.12 30.68 370.62 15.84 426.93 11.72 Z" />
<path fill="#fc0608" d=" M 451.28 10.38 C 454.10 9.97 456.95 9.97 459.79 10.12 C 474.92 57.41 491.08 104.35 506.18 151.65 C 495.45 150.72 484.79 148.78 474.00 149.00 C 467.85 149.14 461.74 147.89 455.60 148.56 C 447.67 149.39 439.66 148.58 431.74 149.61 C 422.54 150.42 413.40 151.79 404.28 153.24 C 409.09 138.62 413.59 123.91 418.55 109.34 C 429.59 76.40 440.34 43.35 451.28 10.38 Z" />
<path fill="#7915f0" d=" M 455.60 148.56 C 461.74 147.89 467.85 149.14 474.00 149.00 C 484.79 148.78 495.45 150.72 506.18 151.65 C 528.13 153.96 549.37 160.59 570.11 167.89 C 602.61 180.24 633.22 197.77 659.85 220.16 C 668.79 227.15 676.30 235.70 684.43 243.57 C 694.38 253.05 703.09 263.74 711.22 274.79 C 754.02 332.35 775.73 405.16 771.68 476.74 C 768.15 544.06 742.17 610.09 698.50 661.49 C 694.11 667.07 688.75 671.77 684.28 677.28 C 681.27 680.94 677.63 684.00 674.05 687.07 C 651.62 708.85 625.47 726.75 597.30 740.27 C 578.34 750.07 558.06 757.15 537.40 762.40 C 519.95 767.04 502.07 770.11 484.04 771.30 C 472.40 772.64 460.68 771.87 449.00 772.10 C 388.87 770.21 329.52 750.19 280.23 715.77 C 266.31 705.54 252.65 694.82 240.57 682.43 C 185.59 629.06 152.20 554.43 147.93 478.02 C 147.94 465.67 147.88 453.31 147.95 440.96 C 151.09 390.07 166.85 340.00 193.56 296.55 C 230.03 237.06 286.95 190.26 352.71 166.70 C 369.45 160.77 386.59 155.43 404.28 153.24 C 413.40 151.79 422.54 150.42 431.74 149.61 C 439.66 148.58 447.67 149.39 455.60 148.56 Z" />
<path fill="#f7f8f9" d=" M 458.45 158.52 C 462.64 158.30 466.80 159.23 471.00 159.03 C 484.35 158.57 497.50 161.41 510.77 162.35 C 563.57 171.32 613.86 194.66 654.74 229.27 C 662.58 235.36 669.13 242.87 676.24 249.76 C 685.86 258.89 694.27 269.21 702.15 279.86 C 735.68 324.37 756.00 378.51 760.87 433.98 C 761.04 442.33 762.52 450.62 762.00 459.00 C 762.45 467.38 761.40 475.68 760.96 484.03 C 755.89 549.94 728.26 613.88 683.74 662.74 C 681.02 665.37 678.41 668.11 676.10 671.12 C 673.50 674.53 669.89 676.91 666.77 679.77 C 654.20 692.43 639.77 703.07 625.00 713.00 C 615.42 718.88 605.90 724.94 595.66 729.66 C 571.72 742.34 545.68 750.60 519.25 756.24 C 463.61 767.41 404.83 762.63 351.86 742.15 C 290.06 718.78 236.46 674.31 202.18 617.82 C 177.99 578.64 163.16 533.82 158.91 488.00 C 157.29 476.40 158.25 464.67 158.00 453.00 C 157.57 439.39 159.32 425.83 161.42 412.41 C 168.54 366.77 186.58 322.95 213.29 285.29 C 224.69 269.57 237.25 254.70 251.24 241.24 C 264.78 228.96 278.88 217.17 294.30 207.30 C 303.53 201.37 313.04 195.92 322.66 190.67 C 346.40 179.03 371.43 169.77 397.39 164.51 C 409.24 163.03 420.95 160.52 432.89 159.72 C 441.35 158.32 449.96 159.61 458.45 158.52 Z" />
<path fill="#f7f8f9" d=" M 918.43 493.28 C 919.60 485.28 918.17 477.10 920.00 469.18 L 920.00 920.00 L 474.17 920.00 C 481.71 918.35 489.47 919.41 497.08 918.26 C 576.81 911.73 654.84 884.24 720.61 838.62 C 740.88 824.59 760.26 809.15 777.85 791.86 C 782.01 788.37 786.16 784.82 789.55 780.56 C 793.53 775.56 798.44 771.43 802.56 766.57 C 834.37 730.74 860.94 690.15 880.23 646.26 C 901.64 597.97 914.64 545.96 918.43 493.28 Z" />
<path fill="#f7f8f9" d=" M 0.00 483.16 C 0.41 485.76 0.83 488.37 1.00 491.01 C 2.66 518.68 7.45 546.09 13.97 573.00 C 19.05 592.48 25.27 611.67 32.57 630.43 C 39.51 646.80 46.41 663.25 55.28 678.69 C 74.30 714.44 98.69 747.15 126.23 776.77 C 131.57 782.10 136.93 787.40 142.23 792.78 C 170.20 819.21 201.36 842.30 234.97 861.07 C 295.19 894.79 363.03 914.91 431.96 918.91 C 436.27 918.91 440.60 919.13 444.84 920.00 L 0.00 920.00 L 0.00 483.16 Z" />
</svg>
